<svg xmlns="http://www.w3.org/2000/svg" version="1.1" xmlns:xlink="http://www.w3.org/1999/xlink" xmlns:svgjs="http://svgjs.com/svgjs" width="1331" height="560" preserveAspectRatio="none" viewBox="0 0 1331 560">
    <g mask="url(&quot;#SvgjsMask1613&quot;)" fill="none">
        <rect width="1331" height="560" x="0" y="0" fill="#0e2a47"></rect>
        <path d="M0,402.047C84.765,397.041,179.792,436.674,249.168,387.713C318.461,338.811,324.021,239.902,345.87,157.954C364.423,88.367,378.458,18.326,366.594,-52.708C354.914,-122.638,326.967,-189.541,279.097,-241.839C231.982,-293.313,161.79,-309.314,100.755,-343.139C19.52,-388.159,-49.832,-499.369,-139.054,-473.573C-228.146,-447.814,-221.832,-313.627,-271.72,-235.447C-312.228,-171.966,-390.091,-132.087,-404.166,-58.11C-418.406,16.733,-367.455,85.017,-346.636,158.303C-321.404,247.124,-344.359,365.194,-268.828,418.305C-193.874,471.01,-91.47,407.449,0,402.047" fill="#0b2037"></path>
        <path d="M1331 1155.899C1440.886 1163.1100000000001 1497.737 1022.444 1585.16 955.481 1663.575 895.418 1759.921 862.1949999999999 1818.385 782.581 1885.4569999999999 691.246 1960.524 583.876 1939.865 472.45799999999997 1919.23 361.169 1795.971 306.404 1715.3600000000001 226.95 1641.871 154.51600000000002 1584.326 62.61099999999999 1487.596 26.68399999999997 1387.639-10.442000000000007 1274.657-9.769999999999982 1174.188 25.948999999999955 1076.456 60.69499999999999 996.727 134.38799999999998 940.1379999999999 221.31599999999997 887.921 301.529 872.678 398.01 869.7049999999999 493.676 866.9780000000001 581.416 882.74 668.378 923.835 745.946 963.381 820.5889999999999 1037.883 863.539 1097.41 923.473 1176.414 1003.018 1219.129 1148.558 1331 1155.899" fill="#113457"></path>
    </g>
    <defs>
        <mask id="SvgjsMask1613">
            <rect width="1331" height="560" fill="#ffffff"></rect>
        </mask>
    </defs>
</svg>